<svg viewBox="0 0 21 16" fill="none" xmlns="http://www.w3.org/2000/svg">
<path d="M20.9091 -2.70216e-07L20.9091 4.09091C20.9091 5.33334 20.6894 6.65152 20.25 8.04546C19.7955 9.45455 19.1439 10.8106 18.2955 12.1136C17.4318 13.4318 16.3939 14.5758 15.1818 15.5455L12.2727 13.1818C13.2273 11.8182 14.0606 10.3939 14.7727 8.90909C15.4697 7.4394 15.8182 5.86364 15.8182 4.18182L15.8182 -7.15277e-07L20.9091 -2.70216e-07ZM9.27273 -1.2875e-06L9.27273 4.09091C9.27273 5.33333 9.05303 6.65152 8.61364 8.04545C8.15909 9.45455 7.50757 10.8106 6.65909 12.1136C5.79545 13.4318 4.75757 14.5758 3.54545 15.5455L0.636361 13.1818C1.59091 11.8182 2.42424 10.3939 3.13636 8.90909C3.83333 7.43939 4.18182 5.86364 4.18182 4.18182L4.18182 -1.73256e-06L9.27273 -1.2875e-06Z" fill="#8892B0"/>
</svg>
