<svg viewBox="0 0 138 207" fill="none"
    xmlns="http://www.w3.org/2000/svg">
    <g clip-path="url(#clip0_69_327)">
        <path d="M69 103.5C69 94.35 72.6348 85.5748 79.1048 79.1048C85.5748 72.6348 94.35 69 103.5 69C112.65 69 121.425 72.6348 127.895 79.1048C134.365 85.5748 138 94.35 138 103.5C138 112.65 134.365 121.425 127.895 127.895C121.425 134.365 112.65 138 103.5 138C94.35 138 85.5748 134.365 79.1048 127.895C72.6348 121.425 69 112.65 69 103.5V103.5Z" fill="#1ABCFE"/>
        <path d="M0 172.5C0 163.35 3.63481 154.575 10.1048 148.105C16.5748 141.635 25.35 138 34.5 138H69V172.5C69 181.65 65.3652 190.425 58.8952 196.895C52.4252 203.365 43.65 207 34.5 207C25.35 207 16.5748 203.365 10.1048 196.895C3.63481 190.425 0 181.65 0 172.5H0Z" fill="#0ACF83"/>
        <path d="M69 0V69H103.5C112.65 69 121.425 65.3652 127.895 58.8952C134.365 52.4252 138 43.65 138 34.5C138 25.35 134.365 16.5748 127.895 10.1048C121.425 3.63481 112.65 0 103.5 0L69 0Z" fill="#FF7262"/>
        <path d="M0 34.5C0 43.65 3.63481 52.4252 10.1048 58.8952C16.5748 65.3652 25.35 69 34.5 69H69V0H34.5C25.35 0 16.5748 3.63481 10.1048 10.1048C3.63481 16.5748 0 25.35 0 34.5H0Z" fill="#F24E1E"/>
        <path d="M0 103.5C0 112.65 3.63481 121.425 10.1048 127.895C16.5748 134.365 25.35 138 34.5 138H69V69H34.5C25.35 69 16.5748 72.6348 10.1048 79.1048C3.63481 85.5748 0 94.35 0 103.5H0Z" fill="#A259FF"/>
    </g>
    <defs>
        <clipPath id="clip0_69_327">
            <rect width="138" height="207" fill="white"/>
        </clipPath>
    </defs>
</svg>
